<svg width="645" height="445" viewBox="0 0 645 445" fill="none" xmlns="http://www.w3.org/2000/svg">
<g filter="url(#filter0_d_14_6)">
<mask id="path-1-inside-1_14_6" fill="white">
<path d="M314.663 82.4205V88.5245L263.943 88.9315C236.168 89.2028 209.868 89.0672 205.575 88.9315L197.926 88.3889V82.4205V76.4522H256.295H314.663V82.4205Z"/>
<path d="M308.625 132.841C310.235 134.469 300.574 150.339 294.536 156.172C272.262 177.197 238.851 176.383 216.98 154.273C210.539 147.762 203.294 137.317 203.294 134.333C203.294 133.112 206.782 132.57 215.772 132.298C235.631 131.62 307.82 132.027 308.625 132.841Z"/>
<path d="M265.687 315.42L363.102 222.948C381.484 204.229 390.072 198.261 406.71 192.428C415.834 189.173 419.457 188.63 431.533 188.63C449.245 188.766 461.992 192.021 480.509 201.516C494.866 208.841 529.753 231.63 534.181 236.648C535.791 238.547 533.241 237.327 527.472 233.664C497.55 214.131 457.027 199.753 438.511 201.923C427.776 203.144 413.956 208.434 404.295 214.81C394.097 221.456 385.778 230.002 352.099 268.525C310.772 315.593 294.938 329.429 264.211 345.028C249.317 352.489 241.266 355.609 225.97 359.407C186.253 369.173 145.596 366.325 114.332 351.268C98.9018 343.943 80.2508 330.786 68.3088 318.985C62.1366 313.016 57.1719 307.59 57.1719 307.048C57.1719 306.505 61.1973 308.811 66.2961 312.202C100.646 335.805 150.963 344.757 201.415 336.347C231.337 331.464 253.879 325.224 273.47 312.202C284.607 304.878 301.781 291.313 314.663 276.121L288 307.353L248.244 325.665L265.687 315.42Z"/>
<path d="M464.139 244.38C476.349 246.279 498.623 254.147 514.188 262.014C552.027 281.275 601.539 323.325 637.633 367.003C642.195 372.564 641.256 371.886 632.266 363.34C590.536 323.461 536.596 289.685 491.377 275.036C456.893 263.777 429.118 264.862 406.173 278.427C395.707 284.667 378.13 301.486 355.319 327.123C333.448 351.675 310.906 374.463 299.098 384.094C265.956 411.223 223.286 426.822 190.412 423.974C174.445 422.617 154.586 418.005 141.437 412.851C128.958 407.968 113.527 400.236 114.332 399.286C114.601 399.151 118.358 400.1 122.786 401.592C143.852 408.917 172.567 412.172 194.84 409.867C222.347 406.882 248.915 396.302 270.92 379.889C283.801 370.258 310.906 343.808 333.045 319.527C383.899 263.37 401.477 249.535 427.91 244.38C436.498 242.752 453.941 242.617 464.139 244.38Z"/>
<path d="M164.918 76.5879C167.333 79.7077 167.602 81.878 167.468 95.8494C167.333 114.704 169.48 124.335 177.531 140.205C184.508 154.041 204.233 174.659 216.98 181.305C249.317 198.397 292.389 192.428 316.675 167.47C337.205 146.309 346.195 124.199 346.195 95.0355C346.195 81.3354 346.463 79.7077 349.147 77.2661C353.977 72.5185 356.795 72.3829 361.089 76.5879C366.188 81.4711 366.993 86.7612 365.248 104.124C362.431 131.524 355.185 150.243 340.425 168.012C331.033 179.271 316.005 192.564 307.954 196.769C300.037 200.974 286.217 205.45 275.348 207.349L265.687 209.113V215.352C265.553 218.743 265.419 246.686 265.285 277.206L265.687 315.42L248.244 325.665V315.729V278.563V209.113L244.353 207.349C238.583 207.349 218.322 201.11 209.6 196.633C194.035 188.63 178.202 174.93 168.944 161.094C156.062 141.969 150.427 123.385 149.353 97.0702C148.548 80.3859 148.682 79.572 151.634 76.4522C155.794 71.9759 161.295 71.976 164.918 76.5879Z"/>
<path d="M274.858 14.0557C288.947 19.3459 310.148 44.9827 310.148 56.7838V59.9036H285.593C272.041 59.9036 247.352 60.3105 230.848 60.7174C214.343 61.1243 200.12 60.9887 199.315 60.3105C196.632 58.4115 199.449 45.6609 204.28 38.743C213.941 24.5004 225.48 15.9548 240.24 12.5637C250.035 10.1221 266.539 10.9359 274.858 14.0557Z"/>
<path d="M298.293 104.201H314.663V111.118V118.172L273.47 117.222C250.659 116.816 225.165 116.951 216.712 117.629C208.258 118.172 201.147 118.715 201.013 118.579C200.878 118.443 200.61 115.323 200.342 111.661L199.939 104.879L210.003 104.065C215.504 103.522 234.021 103.387 250.927 103.658C267.968 103.929 289.169 104.201 298.293 104.201Z"/>
</mask>
<path d="M314.663 82.4205V88.5245L263.943 88.9315C236.168 89.2028 209.868 89.0672 205.575 88.9315L197.926 88.3889V82.4205V76.4522H256.295H314.663V82.4205Z" fill="#D4B200"/>
<path d="M308.625 132.841C310.235 134.469 300.574 150.339 294.536 156.172C272.262 177.197 238.851 176.383 216.98 154.273C210.539 147.762 203.294 137.317 203.294 134.333C203.294 133.112 206.782 132.57 215.772 132.298C235.631 131.62 307.82 132.027 308.625 132.841Z" fill="#D4B200"/>
<path d="M265.687 315.42L363.102 222.948C381.484 204.229 390.072 198.261 406.71 192.428C415.834 189.173 419.457 188.63 431.533 188.63C449.245 188.766 461.992 192.021 480.509 201.516C494.866 208.841 529.753 231.63 534.181 236.648C535.791 238.547 533.241 237.327 527.472 233.664C497.55 214.131 457.027 199.753 438.511 201.923C427.776 203.144 413.956 208.434 404.295 214.81C394.097 221.456 385.778 230.002 352.099 268.525C310.772 315.593 294.938 329.429 264.211 345.028C249.317 352.489 241.266 355.609 225.97 359.407C186.253 369.173 145.596 366.325 114.332 351.268C98.9018 343.943 80.2508 330.786 68.3088 318.985C62.1366 313.016 57.1719 307.59 57.1719 307.048C57.1719 306.505 61.1973 308.811 66.2961 312.202C100.646 335.805 150.963 344.757 201.415 336.347C231.337 331.464 253.879 325.224 273.47 312.202C284.607 304.878 301.781 291.313 314.663 276.121L288 307.353L248.244 325.665L265.687 315.42Z" fill="#D4B200"/>
<path d="M464.139 244.38C476.349 246.279 498.623 254.147 514.188 262.014C552.027 281.275 601.539 323.325 637.633 367.003C642.195 372.564 641.256 371.886 632.266 363.34C590.536 323.461 536.596 289.685 491.377 275.036C456.893 263.777 429.118 264.862 406.173 278.427C395.707 284.667 378.13 301.486 355.319 327.123C333.448 351.675 310.906 374.463 299.098 384.094C265.956 411.223 223.286 426.822 190.412 423.974C174.445 422.617 154.586 418.005 141.437 412.851C128.958 407.968 113.527 400.236 114.332 399.286C114.601 399.151 118.358 400.1 122.786 401.592C143.852 408.917 172.567 412.172 194.84 409.867C222.347 406.882 248.915 396.302 270.92 379.889C283.801 370.258 310.906 343.808 333.045 319.527C383.899 263.37 401.477 249.535 427.91 244.38C436.498 242.752 453.941 242.617 464.139 244.38Z" fill="#EEEEEE" fill-opacity="0.933333"/>
<path d="M164.918 76.5879C167.333 79.7077 167.602 81.878 167.468 95.8494C167.333 114.704 169.48 124.335 177.531 140.205C184.508 154.041 204.233 174.659 216.98 181.305C249.317 198.397 292.389 192.428 316.675 167.47C337.205 146.309 346.195 124.199 346.195 95.0355C346.195 81.3354 346.463 79.7077 349.147 77.2661C353.977 72.5185 356.795 72.3829 361.089 76.5879C366.188 81.4711 366.993 86.7612 365.248 104.124C362.431 131.524 355.185 150.243 340.425 168.012C331.033 179.271 316.005 192.564 307.954 196.769C300.037 200.974 286.217 205.45 275.348 207.349L265.687 209.113V215.352C265.553 218.743 265.419 246.686 265.285 277.206L265.687 315.42L248.244 325.665V315.729V278.563V209.113L244.353 207.349C238.583 207.349 218.322 201.11 209.6 196.633C194.035 188.63 178.202 174.93 168.944 161.094C156.062 141.969 150.427 123.385 149.353 97.0702C148.548 80.3859 148.682 79.572 151.634 76.4522C155.794 71.9759 161.295 71.976 164.918 76.5879Z" fill="#EEEEEE" fill-opacity="0.933333"/>
<path d="M274.858 14.0557C288.947 19.3459 310.148 44.9827 310.148 56.7838V59.9036H285.593C272.041 59.9036 247.352 60.3105 230.848 60.7174C214.343 61.1243 200.12 60.9887 199.315 60.3105C196.632 58.4115 199.449 45.6609 204.28 38.743C213.941 24.5004 225.48 15.9548 240.24 12.5637C250.035 10.1221 266.539 10.9359 274.858 14.0557Z" fill="#EEEEEE" fill-opacity="0.933333"/>
<path d="M298.293 104.201H314.663V111.118V118.172L273.47 117.222C250.659 116.816 225.165 116.951 216.712 117.629C208.258 118.172 201.147 118.715 201.013 118.579C200.878 118.443 200.61 115.323 200.342 111.661L199.939 104.879L210.003 104.065C215.504 103.522 234.021 103.387 250.927 103.658C267.968 103.929 289.169 104.201 298.293 104.201Z" fill="#EEEEEE" fill-opacity="0.933333"/>
<path d="M4.5 437V437.5H4V437H4.5ZM534.181 437H534.681V437.5H534.181V437ZM534.181 0.5V0H534.681V0.5H534.181ZM4.5 0.5H4V0H4.5V0.5ZM5 215.352V437H4V215.352H5ZM4.5 436.5H349.147V437.5H4.5V436.5ZM349.147 436.5H534.181V437.5H349.147V436.5ZM533.681 437V262.014H534.681V437H533.681ZM533.681 262.014V0.5H534.681V262.014H533.681ZM534.181 1H308.625V0H534.181V1ZM308.625 1H4.5V0H308.625V1ZM5 0.5V215.352H4V0.5H5ZM247.991 325.234L265.434 314.989L265.94 315.851L248.497 326.096L247.991 325.234ZM274.858 14.0557L275.21 13.1194L275.21 13.1195L274.858 14.0557ZM310.148 59.9036H311.148V60.9036H310.148V59.9036ZM199.315 60.3105L199.893 59.4942L199.927 59.5185L199.96 59.5457L199.315 60.3105ZM204.28 38.743L205.108 39.3044L205.1 39.3155L204.28 38.743ZM240.24 12.5637L240.482 13.534L240.473 13.5362L240.464 13.5383L240.24 12.5637ZM314.663 88.5245H315.663V89.5165L314.671 89.5245L314.663 88.5245ZM263.943 88.9315L263.933 87.9316L263.935 87.9316L263.943 88.9315ZM205.575 88.9315L205.543 89.931L205.523 89.9304L205.504 89.929L205.575 88.9315ZM197.926 88.3889L197.856 89.3863L196.926 89.3204V88.3889H197.926ZM197.926 76.4522H196.926V75.4522H197.926V76.4522ZM314.663 76.4522V75.4522H315.663V76.4522H314.663ZM164.918 76.5879L165.705 75.9701L165.709 75.9757L164.918 76.5879ZM167.468 95.8494L166.468 95.8422L166.468 95.8398L167.468 95.8494ZM177.531 140.205L178.423 139.753L178.424 139.755L177.531 140.205ZM216.98 181.305L217.442 180.419L217.447 180.421L216.98 181.305ZM316.675 167.47L317.393 168.166L317.392 168.167L316.675 167.47ZM349.147 77.2661L349.848 77.9793L349.834 77.9928L349.82 78.0057L349.147 77.2661ZM361.089 76.5879L360.397 77.3101L360.389 77.3023L361.089 76.5879ZM365.248 104.124L366.243 104.224L366.243 104.226L365.248 104.124ZM340.425 168.012L341.194 168.651L341.193 168.653L340.425 168.012ZM307.954 196.769L307.485 195.886L307.491 195.883L307.954 196.769ZM275.348 207.349L275.169 206.365L275.176 206.364L275.348 207.349ZM265.687 209.113H264.687V208.279L265.508 208.129L265.687 209.113ZM265.687 215.352H266.687V215.372L266.686 215.392L265.687 215.352ZM265.285 277.206L264.285 277.217L264.285 277.209L264.285 277.202L265.285 277.206ZM265.687 315.42L266.376 316.145L264.711 317.725L264.687 315.431L265.687 315.42ZM363.102 222.948L363.815 223.649L363.803 223.661L363.79 223.674L363.102 222.948ZM406.71 192.428L407.046 193.37L407.041 193.372L406.71 192.428ZM431.533 188.63V187.63L431.541 187.63L431.533 188.63ZM480.509 201.516L480.054 202.407L480.053 202.406L480.509 201.516ZM534.181 236.648L534.931 235.987L534.937 235.994L534.943 236.002L534.181 236.648ZM527.472 233.664L526.936 234.509L526.925 234.502L527.472 233.664ZM438.511 201.923L438.627 202.917L438.624 202.917L438.511 201.923ZM404.295 214.81L404.846 215.644L404.841 215.647L404.295 214.81ZM352.099 268.525L352.852 269.183L352.85 269.185L352.099 268.525ZM264.211 345.028L264.664 345.92L264.659 345.922L264.211 345.028ZM225.97 359.407L226.211 360.377L226.209 360.378L225.97 359.407ZM114.332 351.268L114.761 350.365L114.766 350.367L114.332 351.268ZM68.3088 318.985L69.004 318.266L69.0117 318.273L68.3088 318.985ZM66.2961 312.202L66.8499 311.37L66.8562 311.374L66.8625 311.378L66.2961 312.202ZM201.415 336.347L201.251 335.361L201.254 335.36L201.415 336.347ZM273.47 312.202L272.916 311.37L272.92 311.367L273.47 312.202ZM314.663 276.121L313.902 275.472L315.425 276.768L314.663 276.121ZM248.244 325.665L248.662 326.573L247.244 327.227V325.665H248.244ZM248.244 209.113L248.657 208.202L249.244 208.468V209.113H248.244ZM244.353 207.349V206.349H244.569L244.765 206.438L244.353 207.349ZM209.6 196.633L209.143 197.523L209.143 197.523L209.6 196.633ZM168.944 161.094L169.773 160.536L169.775 160.538L168.944 161.094ZM149.353 97.0702L150.352 97.022L150.353 97.0294L149.353 97.0702ZM151.634 76.4522L152.367 77.133L152.361 77.1395L151.634 76.4522ZM314.663 104.201V103.201H315.663V104.201H314.663ZM314.663 118.172H315.663V119.195L314.64 119.172L314.663 118.172ZM273.47 117.222L273.487 116.223L273.493 116.223L273.47 117.222ZM216.712 117.629L216.792 118.626L216.784 118.627L216.776 118.627L216.712 117.629ZM200.342 111.661L199.344 111.734L199.343 111.72L200.342 111.661ZM199.939 104.879L198.941 104.938L198.883 103.961L199.858 103.882L199.939 104.879ZM210.003 104.065L210.101 105.06L210.092 105.061L210.083 105.062L210.003 104.065ZM250.927 103.658L250.912 104.658L250.911 104.658L250.927 103.658ZM294.536 156.172L295.231 156.891L295.222 156.899L294.536 156.172ZM216.98 154.273L217.691 153.57L216.98 154.273ZM215.772 132.298L215.806 133.298L215.803 133.298L215.772 132.298ZM464.139 244.38L463.985 245.368L463.977 245.367L463.969 245.366L464.139 244.38ZM514.188 262.014L514.639 261.121L514.642 261.123L514.188 262.014ZM637.633 367.003L638.404 366.366L638.406 366.369L637.633 367.003ZM632.266 363.34L631.577 364.065L631.575 364.063L632.266 363.34ZM491.377 275.036L491.069 275.987L491.067 275.987L491.377 275.036ZM406.173 278.427L405.661 277.568L405.664 277.566L406.173 278.427ZM355.319 327.123L356.066 327.788L356.066 327.788L355.319 327.123ZM299.098 384.094L298.464 383.32L298.466 383.319L299.098 384.094ZM190.412 423.974L190.497 422.977L190.499 422.977L190.412 423.974ZM141.437 412.851L141.801 411.919L141.802 411.92L141.437 412.851ZM114.332 399.286L113.57 398.639L113.701 398.485L113.881 398.394L114.332 399.286ZM122.786 401.592L123.105 400.644L123.114 400.648L122.786 401.592ZM194.84 409.867L194.948 410.861L194.943 410.861L194.84 409.867ZM270.92 379.889L271.519 380.69L271.518 380.691L270.92 379.889ZM333.045 319.527L333.787 320.198L333.784 320.201L333.045 319.527ZM427.91 244.38L427.719 243.399L427.724 243.398L427.91 244.38ZM288 307.353L288.761 308.002L288.618 308.169L288.418 308.261L288 307.353ZM275.21 13.1195C282.504 15.8585 291.464 23.7568 298.557 32.3412C302.12 36.6533 305.252 41.1852 307.498 45.4028C309.728 49.5902 311.148 53.583 311.148 56.7838H309.148C309.148 54.0839 307.918 50.4468 305.732 46.3429C303.563 42.2692 300.514 37.8486 297.016 33.6151C289.986 25.1082 281.301 17.5431 274.507 14.9919L275.21 13.1195ZM311.148 56.7838V59.9036H309.148V56.7838H311.148ZM310.148 60.9036H285.593V58.9036H310.148V60.9036ZM285.593 60.9036C272.052 60.9036 247.373 61.3103 230.872 61.7171L230.823 59.7177C247.331 59.3107 272.029 58.9036 285.593 58.9036V60.9036ZM230.872 61.7171C222.612 61.9208 214.917 61.9888 209.182 61.9208C206.317 61.8868 203.929 61.8188 202.201 61.7156C201.34 61.6642 200.625 61.6031 200.089 61.5302C199.824 61.4941 199.581 61.4522 199.378 61.4014C199.276 61.376 199.168 61.3441 199.063 61.3027C198.97 61.2662 198.817 61.198 198.671 61.0753L199.96 59.5457C199.906 59.5009 199.861 59.4747 199.839 59.4624C199.815 59.4494 199.799 59.4432 199.797 59.4423C199.794 59.4411 199.813 59.4485 199.864 59.4612C199.965 59.4867 200.127 59.5169 200.359 59.5485C200.821 59.6113 201.478 59.6689 202.32 59.7192C204.002 59.8195 206.352 59.8871 209.206 59.921C214.91 59.9886 222.579 59.921 230.823 59.7177L230.872 61.7171ZM198.738 61.1268C198.154 60.7137 197.81 60.0751 197.606 59.4211C197.398 58.7573 197.3 57.9757 197.28 57.1363C197.239 55.4546 197.508 53.379 198.005 51.1877C198.997 46.8102 200.951 41.7635 203.46 38.1705L205.1 39.3155C202.778 42.6405 200.908 47.428 199.955 51.63C199.479 53.7284 199.244 55.6289 199.279 57.0882C199.297 57.8193 199.381 58.3994 199.514 58.8234C199.65 59.2573 199.806 59.4325 199.893 59.4942L198.738 61.1268ZM203.452 38.1817C213.229 23.7681 224.969 15.0463 240.016 11.5891L240.464 13.5383C225.992 16.8633 214.652 25.2326 205.107 39.3044L203.452 38.1817ZM239.998 11.5934C245.023 10.3409 251.703 9.93446 258.148 10.2252C264.587 10.5156 270.91 11.5071 275.21 13.1194L274.507 14.992C270.487 13.4845 264.4 12.5092 258.058 12.2231C251.722 11.9374 245.252 12.3449 240.482 13.534L239.998 11.5934ZM315.663 82.4205V88.5245H313.663V82.4205H315.663ZM314.671 89.5245L263.951 89.9315L263.935 87.9316L314.655 87.5246L314.671 89.5245ZM263.953 89.9315C236.179 90.2027 209.86 90.0674 205.543 89.931L205.606 87.932C209.877 88.0669 236.156 88.2029 263.933 87.9316L263.953 89.9315ZM205.504 89.929L197.856 89.3863L197.997 87.3914L205.645 87.934L205.504 89.929ZM196.926 88.3889V82.4205H198.926V88.3889H196.926ZM196.926 82.4205V76.4522H198.926V82.4205H196.926ZM197.926 75.4522H256.295V77.4522H197.926V75.4522ZM256.295 75.4522H314.663V77.4522H256.295V75.4522ZM315.663 76.4522V82.4205H313.663V76.4522H315.663ZM165.709 75.9757C166.343 76.7952 166.868 77.5921 167.276 78.5605C167.683 79.5263 167.956 80.619 168.14 82.0189C168.504 84.7826 168.534 88.8966 168.468 95.859L166.468 95.8398C166.535 88.8307 166.499 84.8739 166.157 82.2796C165.989 81.0006 165.751 80.0926 165.433 79.3374C165.116 78.5848 164.701 77.9405 164.128 77.2L165.709 75.9757ZM168.468 95.8565C168.401 105.247 168.903 112.283 170.405 118.926C171.907 125.565 174.419 131.859 178.423 139.753L176.639 140.658C172.593 132.681 170.006 126.224 168.455 119.367C166.904 112.513 166.4 105.306 166.468 95.8422L168.468 95.8565ZM178.424 139.755C181.849 146.547 188.45 155.078 195.814 162.759C203.182 170.445 211.211 177.17 217.442 180.419L216.518 182.192C210.001 178.795 201.795 171.887 194.37 164.143C186.941 156.394 180.19 147.699 176.638 140.655L178.424 139.755ZM217.447 180.421C249.42 197.32 292.003 191.391 315.959 166.772L317.392 168.167C292.775 193.466 249.215 199.474 216.513 182.19L217.447 180.421ZM315.958 166.773C336.308 145.798 345.195 123.937 345.195 95.0355H347.195C347.195 124.461 338.102 146.821 317.393 168.166L315.958 166.773ZM345.195 95.0355C345.195 88.219 345.259 84.2901 345.678 81.7651C345.892 80.4779 346.206 79.4957 346.684 78.6528C347.161 77.8099 347.769 77.1674 348.474 76.5264L349.82 78.0057C349.183 78.5855 348.751 79.0621 348.423 79.6392C348.096 80.2163 347.84 80.9551 347.651 82.0926C347.265 84.4169 347.195 88.1519 347.195 95.0355H345.195ZM348.446 76.5529C350.879 74.1611 353.023 72.6948 355.264 72.5713C357.551 72.4452 359.597 73.7276 361.789 75.8734L360.389 77.3023C358.287 75.2432 356.777 74.4909 355.374 74.5683C353.925 74.6481 352.245 75.6234 349.848 77.9793L348.446 76.5529ZM361.781 75.8657C364.483 78.4543 366.069 81.1966 366.724 85.5265C367.365 89.7693 367.115 95.5487 366.243 104.224L364.253 104.024C365.126 95.3362 365.346 89.7893 364.746 85.8256C364.16 81.949 362.793 79.6047 360.397 77.3101L361.781 75.8657ZM366.243 104.226C363.409 131.784 356.104 150.701 341.194 168.651L339.656 167.373C354.266 149.785 361.452 131.264 364.254 104.021L366.243 104.226ZM341.193 168.653C336.458 174.328 330.316 180.502 324.349 185.784C318.398 191.053 312.554 195.494 308.417 197.655L307.491 195.883C311.404 193.838 317.1 189.531 323.023 184.287C328.931 179.057 335 172.955 339.657 167.372L341.193 168.653ZM308.423 197.652C300.394 201.917 286.469 206.421 275.52 208.334L275.176 206.364C285.965 204.479 299.68 200.031 307.485 195.886L308.423 197.652ZM275.528 208.333L265.867 210.096L265.508 208.129L275.169 206.365L275.528 208.333ZM266.687 209.113V215.352H264.687V209.113H266.687ZM266.686 215.392C266.553 218.759 266.419 246.671 266.285 277.211L264.285 277.202C264.419 246.701 264.553 218.727 264.688 215.313L266.686 215.392ZM266.285 277.196L266.687 315.41L264.687 315.431L264.285 277.217L266.285 277.196ZM264.999 314.695L362.413 222.223L363.79 223.674L266.376 316.145L264.999 314.695ZM362.388 222.248C371.589 212.878 378.384 206.652 384.987 202.036C391.607 197.409 398.002 194.421 406.379 191.485L407.041 193.372C398.78 196.268 392.562 199.181 386.133 203.676C379.687 208.182 372.996 214.3 363.815 223.649L362.388 222.248ZM406.374 191.486C410.958 189.851 414.215 188.877 417.864 188.32C421.501 187.765 425.491 187.63 431.533 187.63V189.63C425.499 189.63 421.64 189.767 418.165 190.297C414.703 190.825 411.586 191.75 407.046 193.37L406.374 191.486ZM431.541 187.63C449.429 187.767 462.328 191.07 480.965 200.627L480.053 202.406C461.656 192.973 449.061 189.765 431.526 189.63L431.541 187.63ZM480.963 200.626C488.192 204.314 500.541 211.867 511.616 219.11C517.158 222.735 522.396 226.292 526.529 229.259C528.595 230.743 530.391 232.084 531.814 233.216C533.221 234.334 534.313 235.287 534.931 235.987L533.431 237.31C532.941 236.755 531.974 235.898 530.57 234.781C529.181 233.677 527.414 232.357 525.362 230.884C521.26 227.938 516.048 224.399 510.521 220.784C499.456 213.547 487.183 206.044 480.054 202.407L480.963 200.626ZM534.943 236.002C535.157 236.254 535.353 236.512 535.479 236.756C535.54 236.873 535.623 237.058 535.648 237.282C535.675 237.527 535.635 237.923 535.303 238.231C535.014 238.499 534.677 238.533 534.517 238.535C534.338 238.538 534.171 238.506 534.044 238.474C533.784 238.409 533.488 238.292 533.18 238.152C531.95 237.593 529.813 236.335 526.936 234.508L528.008 232.82C530.9 234.656 532.923 235.839 534.007 236.331C534.278 236.454 534.445 236.513 534.53 236.534C534.575 236.546 534.551 236.534 534.483 236.536C534.435 236.536 534.18 236.545 533.943 236.765C533.662 237.026 533.643 237.351 533.66 237.502C533.674 237.632 533.716 237.7 533.703 237.675C533.683 237.637 533.607 237.518 533.418 237.295L534.943 236.002ZM526.925 234.502C512.036 224.782 494.496 216.338 478.379 210.597C462.215 204.84 447.642 201.86 438.627 202.917L438.394 200.93C447.896 199.817 462.842 202.94 479.05 208.713C495.303 214.502 512.986 223.014 528.018 232.827L526.925 234.502ZM438.624 202.917C428.063 204.118 414.391 209.345 404.846 215.644L403.744 213.975C413.52 207.523 427.489 202.17 438.398 200.93L438.624 202.917ZM404.841 215.647C394.786 222.201 386.568 230.617 352.852 269.183L351.346 267.867C384.988 229.386 393.408 220.712 403.749 213.972L404.841 215.647ZM352.85 269.185C311.497 316.283 295.563 330.234 264.664 345.92L263.759 344.137C294.314 328.625 310.046 314.904 351.347 267.865L352.85 269.185ZM264.659 345.922C249.708 353.411 241.588 356.559 226.211 360.377L225.729 358.436C240.944 354.658 248.926 351.566 263.763 344.134L264.659 345.922ZM226.209 360.378C186.312 370.188 145.411 367.345 113.899 352.169L114.766 350.367C145.782 365.304 186.194 368.158 225.731 358.436L226.209 360.378ZM113.904 352.171C98.3701 344.798 79.6267 331.575 67.6059 319.696L69.0117 318.273C80.8749 329.997 99.4335 343.089 114.761 350.365L113.904 352.171ZM67.6137 319.704C64.5164 316.708 61.7192 313.847 59.6925 311.662C58.6805 310.57 57.8529 309.639 57.274 308.941C56.9863 308.593 56.7481 308.289 56.577 308.044C56.4927 307.923 56.4113 307.797 56.3468 307.676C56.3146 307.616 56.2776 307.54 56.2465 307.455C56.2202 307.382 56.1719 307.234 56.1719 307.048H58.1719C58.1719 306.896 58.1333 306.791 58.1262 306.771C58.1143 306.739 58.1058 306.725 58.1115 306.735C58.1228 306.756 58.154 306.809 58.2175 306.9C58.3421 307.078 58.54 307.334 58.8141 307.665C59.359 308.322 60.1584 309.223 61.159 310.302C63.1577 312.457 65.929 315.292 69.004 318.266L67.6137 319.704ZM56.1719 307.048C56.1719 306.874 56.214 306.653 56.3563 306.444C56.4988 306.234 56.6889 306.113 56.8523 306.049C57.134 305.938 57.3955 305.97 57.5011 305.985C57.7542 306.023 58.0296 306.125 58.2693 306.226C58.7821 306.443 59.4859 306.81 60.3154 307.28C61.9874 308.229 64.2901 309.667 66.8499 311.37L65.7424 313.035C63.2034 311.346 60.9439 309.936 59.3285 309.02C58.5143 308.558 57.8931 308.238 57.4918 308.069C57.2744 307.977 57.1956 307.962 57.2085 307.964C57.219 307.965 57.2549 307.97 57.3085 307.968C57.3582 307.967 57.4606 307.958 57.5844 307.91C57.7171 307.858 57.884 307.754 58.0109 307.567C58.1376 307.38 58.1719 307.188 58.1719 307.048H56.1719ZM66.8625 311.378C100.952 334.801 150.992 343.738 201.251 335.361L201.579 337.333C150.935 345.776 100.34 336.808 65.7298 313.027L66.8625 311.378ZM201.254 335.36C231.134 330.484 253.506 324.272 272.916 311.37L274.023 313.035C254.253 326.177 231.541 332.444 201.576 337.334L201.254 335.36ZM272.92 311.367C284.001 304.079 301.097 290.575 313.9 275.474L315.425 276.768C302.466 292.052 285.212 305.676 274.019 313.038L272.92 311.367ZM247.244 278.563V209.113H249.244V278.563H247.244ZM247.831 210.023L243.94 208.26L244.765 206.438L248.657 208.202L247.831 210.023ZM244.353 208.349C242.786 208.349 240.34 207.934 237.491 207.279C234.614 206.617 231.244 205.69 227.789 204.625C220.894 202.5 213.582 199.801 209.143 197.523L210.057 195.744C214.34 197.942 221.52 200.6 228.378 202.714C231.799 203.769 235.121 204.682 237.939 205.33C240.784 205.984 243.034 206.349 244.353 206.349V208.349ZM209.143 197.523C193.441 189.449 177.474 175.64 168.113 161.651L169.775 160.538C178.93 174.221 194.629 187.811 210.057 195.744L209.143 197.523ZM168.114 161.653C155.114 142.351 149.434 123.582 148.354 97.1109L150.353 97.0294C151.42 123.189 157.01 141.586 169.773 160.536L168.114 161.653ZM148.355 97.1184C147.954 88.8193 147.778 84.3424 148.091 81.5625C148.252 80.1396 148.545 79.0918 149.038 78.1719C149.522 77.2671 150.168 76.5469 150.908 75.7649L152.361 77.1395C151.625 77.9174 151.147 78.4689 150.801 79.1155C150.463 79.7471 150.22 80.5304 150.079 81.7865C149.788 84.3647 149.948 88.6368 150.352 97.022L148.355 97.1184ZM150.902 75.7715C153.13 73.3742 155.799 72.0926 158.485 72.112C161.183 72.1315 163.735 73.4631 165.705 75.9702L164.132 77.2056C162.478 75.1007 160.469 74.1264 158.47 74.112C156.46 74.0974 154.299 75.0539 152.367 77.1329L150.902 75.7715ZM298.293 103.201H314.663V105.201H298.293V103.201ZM315.663 104.201V111.118H313.663V104.201H315.663ZM315.663 111.118V118.172H313.663V111.118H315.663ZM314.64 119.172L273.447 118.222L273.493 116.223L314.686 117.172L314.64 119.172ZM273.452 118.222C250.633 117.815 225.188 117.953 216.792 118.626L216.632 116.633C225.142 115.95 250.685 115.816 273.487 116.223L273.452 118.222ZM216.776 118.627C212.546 118.899 208.669 119.169 205.808 119.356C204.382 119.45 203.209 119.522 202.383 119.563C201.971 119.583 201.634 119.596 201.392 119.599C201.273 119.601 201.159 119.6 201.064 119.595C201.019 119.593 200.952 119.588 200.881 119.576C200.847 119.57 200.785 119.559 200.713 119.535C200.674 119.522 200.478 119.461 200.302 119.282L201.723 117.876C201.551 117.701 201.363 117.643 201.334 117.634C201.273 117.614 201.226 117.606 201.209 117.603C201.174 117.597 201.156 117.597 201.172 117.598C201.2 117.6 201.261 117.601 201.366 117.599C201.571 117.597 201.878 117.585 202.284 117.565C203.093 117.525 204.251 117.454 205.677 117.361C208.519 117.175 212.424 116.903 216.648 116.632L216.776 118.627ZM200.302 119.282C200.168 119.147 200.105 119.007 200.086 118.964C200.058 118.902 200.04 118.846 200.028 118.808C200.005 118.731 199.988 118.652 199.975 118.586C199.948 118.449 199.922 118.277 199.897 118.085C199.847 117.698 199.791 117.166 199.732 116.536C199.613 115.271 199.479 113.567 199.344 111.734L201.339 111.588C201.473 113.417 201.607 115.105 201.723 116.349C201.781 116.973 201.835 117.476 201.88 117.826C201.904 118.004 201.923 118.126 201.937 118.2C201.945 118.239 201.948 118.245 201.943 118.231C201.941 118.224 201.932 118.193 201.913 118.151C201.903 118.128 201.848 118.002 201.723 117.876L200.302 119.282ZM199.343 111.72L198.941 104.938L200.937 104.82L201.34 111.602L199.343 111.72ZM199.858 103.882L209.922 103.068L210.083 105.062L200.02 105.876L199.858 103.882ZM209.904 103.07C215.474 102.52 234.053 102.387 250.943 102.658L250.911 104.658C233.988 104.386 215.533 104.524 210.101 105.06L209.904 103.07ZM250.943 102.658C267.985 102.93 289.178 103.201 298.293 103.201V105.201C289.159 105.201 267.951 104.929 250.912 104.658L250.943 102.658ZM309.336 132.138C309.67 132.476 309.77 132.904 309.795 133.229C309.821 133.565 309.78 133.922 309.709 134.27C309.568 134.969 309.268 135.818 308.871 136.746C308.072 138.614 306.8 140.978 305.304 143.448C302.319 148.375 298.341 153.886 295.231 156.891L293.841 155.453C296.768 152.625 300.641 147.285 303.593 142.411C305.065 139.981 306.285 137.707 307.032 135.959C307.409 135.08 307.647 134.376 307.749 133.873C307.801 133.62 307.807 133.464 307.801 133.385C307.794 133.296 307.781 133.409 307.914 133.544L309.336 132.138ZM295.222 156.899C272.544 178.306 238.513 177.463 216.269 154.976L217.691 153.57C239.19 175.303 271.98 176.087 293.849 155.445L295.222 156.899ZM216.269 154.976C213.001 151.672 209.543 147.386 206.898 143.548C205.576 141.628 204.444 139.802 203.639 138.253C203.237 137.479 202.908 136.758 202.677 136.119C202.453 135.497 202.294 134.879 202.294 134.333H204.294C204.294 134.533 204.361 134.894 204.558 135.44C204.749 135.969 205.036 136.604 205.414 137.331C206.168 138.783 207.251 140.535 208.545 142.413C211.134 146.17 214.518 150.362 217.691 153.57L216.269 154.976ZM202.294 134.333C202.294 133.441 202.963 132.92 203.543 132.638C204.145 132.346 204.98 132.137 206.002 131.972C208.069 131.639 211.248 131.434 215.742 131.299L215.803 133.298C211.307 133.434 208.246 133.636 206.321 133.947C205.348 134.104 204.748 134.277 204.416 134.438C204.06 134.61 204.294 134.615 204.294 134.333H202.294ZM215.738 131.299C225.69 130.959 248.722 130.891 269.349 131.01C279.667 131.069 289.392 131.175 296.589 131.318C300.187 131.389 303.159 131.469 305.26 131.557C306.309 131.601 307.151 131.647 307.749 131.697C308.046 131.721 308.3 131.747 308.495 131.777C308.59 131.792 308.695 131.811 308.793 131.837C308.841 131.85 308.908 131.87 308.982 131.901C309.034 131.923 309.19 131.99 309.336 132.138L307.914 133.544C308.047 133.679 308.181 133.734 308.204 133.743C308.247 133.761 308.276 133.769 308.278 133.769C308.281 133.77 308.258 133.764 308.193 133.754C308.066 133.735 307.867 133.713 307.585 133.69C307.028 133.644 306.217 133.599 305.176 133.555C303.098 133.468 300.143 133.388 296.55 133.317C289.365 133.175 279.651 133.069 269.338 133.01C248.705 132.891 225.713 132.959 215.806 133.298L215.738 131.299ZM464.293 243.392C476.64 245.312 499.017 253.225 514.639 261.121L513.737 262.906C498.229 255.068 476.058 247.246 463.985 245.368L464.293 243.392ZM514.642 261.123C552.635 280.463 602.25 322.615 638.404 366.366L636.862 367.64C600.828 324.035 551.418 282.088 513.734 262.905L514.642 261.123ZM638.406 366.369C639.542 367.753 640.363 368.782 640.8 369.402C640.911 369.558 641.009 369.705 641.085 369.836C641.123 369.901 641.163 369.976 641.198 370.055C641.227 370.118 641.283 370.254 641.303 370.423C641.319 370.553 641.349 371.078 640.86 371.41C640.456 371.685 640.043 371.564 639.976 371.545C639.753 371.482 639.559 371.35 639.465 371.286C639 370.965 638.124 370.197 636.862 369.036C635.574 367.851 633.825 366.202 631.577 364.065L632.955 362.616C635.202 364.752 636.942 366.392 638.216 367.564C639.515 368.759 640.276 369.416 640.599 369.638C640.702 369.709 640.652 369.658 640.522 369.621C640.5 369.615 640.121 369.494 639.737 369.755C639.269 370.073 639.307 370.57 639.317 370.659C639.326 370.732 639.342 370.786 639.35 370.812C639.359 370.84 639.367 370.859 639.37 370.865C639.375 370.877 639.373 370.871 639.357 370.842C639.323 370.785 639.263 370.692 639.167 370.555C638.778 370.005 638.005 369.033 636.86 367.637L638.406 366.369ZM631.575 364.063C589.932 324.266 536.118 290.582 491.069 275.987L491.686 274.085C537.074 288.789 591.141 322.656 632.957 362.618L631.575 364.063ZM491.067 275.987C456.752 264.783 429.299 265.917 406.682 279.288L405.664 277.566C428.937 263.808 457.034 262.772 491.688 274.085L491.067 275.987ZM406.685 279.286C396.372 285.435 378.89 302.137 356.066 327.788L354.572 326.459C377.37 300.836 395.043 283.898 405.661 277.568L406.685 279.286ZM356.066 327.788C334.189 352.347 311.603 375.185 299.73 384.869L298.466 383.319C310.209 373.741 332.707 351.003 354.573 326.458L356.066 327.788ZM299.731 384.868C266.448 412.112 223.529 427.847 190.326 424.97L190.499 422.977C223.044 425.797 265.463 410.334 298.464 383.32L299.731 384.868ZM190.328 424.97C174.27 423.606 154.317 418.974 141.072 413.782L141.802 411.92C154.856 417.037 174.62 421.628 190.497 422.977L190.328 424.97ZM141.072 413.782C134.802 411.328 127.797 408.162 122.455 405.488C119.787 404.152 117.515 402.929 115.951 401.973C115.177 401.499 114.538 401.068 114.109 400.705C113.904 400.533 113.683 400.323 113.53 400.088C113.454 399.972 113.348 399.78 113.314 399.533C113.274 399.249 113.336 398.916 113.57 398.639L115.095 399.933C115.279 399.716 115.322 399.456 115.294 399.256C115.272 399.095 115.209 399.001 115.204 398.994C115.195 398.98 115.235 399.038 115.399 399.177C115.708 399.438 116.241 399.805 116.995 400.266C118.488 401.179 120.702 402.373 123.351 403.699C128.643 406.349 135.593 409.49 141.801 411.919L141.072 413.782ZM113.881 398.394C114.13 398.268 114.377 398.273 114.42 398.273C114.519 398.273 114.619 398.282 114.706 398.292C114.884 398.312 115.102 398.351 115.343 398.399C115.83 398.498 116.484 398.657 117.257 398.863C118.806 399.275 120.873 399.892 123.105 400.645L122.466 402.54C120.271 401.8 118.245 401.196 116.742 400.795C115.988 400.594 115.376 400.447 114.945 400.359C114.726 400.315 114.572 400.29 114.476 400.278C114.426 400.273 114.413 400.273 114.426 400.273C114.432 400.273 114.463 400.273 114.508 400.267C114.541 400.262 114.652 400.245 114.784 400.179L113.881 398.394ZM123.114 400.648C144.04 407.924 172.607 411.163 194.737 408.872L194.943 410.861C172.526 413.182 143.664 409.91 122.457 402.537L123.114 400.648ZM194.732 408.872C222.059 405.908 248.458 395.395 270.322 379.088L271.518 380.691C249.371 397.209 222.635 407.857 194.948 410.861L194.732 408.872ZM270.321 379.088C283.121 369.518 310.172 343.128 332.306 318.853L333.784 320.201C311.639 344.487 284.481 370.999 271.519 380.69L270.321 379.088ZM332.304 318.856C383.123 262.738 400.91 248.626 427.719 243.399L428.102 245.362C402.044 250.443 384.676 264.002 333.787 320.198L332.304 318.856ZM427.724 243.398C436.437 241.746 454.001 241.612 464.309 243.395L463.969 245.366C453.881 243.621 436.559 243.759 428.097 245.363L427.724 243.398ZM247.244 325.665V315.729H249.244V325.665H247.244ZM247.244 315.729V278.563H249.244V315.729H247.244ZM315.423 276.77L288.761 308.002L287.239 306.704L313.902 275.472L315.423 276.77ZM288.418 308.261L248.662 326.573L247.825 324.757L287.582 306.445L288.418 308.261Z" fill="#D4B200" mask="url(#path-1-inside-1_14_6)"/>
</g>
<defs>
<filter id="filter0_d_14_6" x="0.5" y="0.5" width="643.811" height="444.5" filterUnits="userSpaceOnUse" color-interpolation-filters="sRGB">
<feFlood flood-opacity="0" result="BackgroundImageFix"/>
<feColorMatrix in="SourceAlpha" type="matrix" values="0 0 0 0 0 0 0 0 0 0 0 0 0 0 0 0 0 0 127 0" result="hardAlpha"/>
<feOffset dy="4"/>
<feGaussianBlur stdDeviation="2"/>
<feComposite in2="hardAlpha" operator="out"/>
<feColorMatrix type="matrix" values="0 0 0 0 0 0 0 0 0 0 0 0 0 0 0 0 0 0 0.25 0"/>
<feBlend mode="normal" in2="BackgroundImageFix" result="effect1_dropShadow_14_6"/>
<feBlend mode="normal" in="SourceGraphic" in2="effect1_dropShadow_14_6" result="shape"/>
</filter>
</defs>
</svg>
