<svg version="1.1" id="Layer_1" xmlns="http://www.w3.org/2000/svg" xmlns:xlink="http://www.w3.org/1999/xlink" x="0px" y="0px"
	 width="100%" viewBox="0 0 920 1024" enable-background="new 0 0 920 1024" xml:space="preserve">
<path fill="#1E1E1E" opacity="1.000000" stroke="none" 
	d="
M0.999996,830.000000 
	C1.000000,553.718811 1.000000,277.437592 1.000000,1.078195 
	C307.556671,1.078195 614.113342,1.078195 921.000000,1.078195 
	C921.000000,153.027878 921.000000,305.056000 920.590820,457.568237 
	C907.802551,456.517944 895.460022,454.523560 883.037415,453.536469 
	C847.655457,450.725006 813.489380,454.903625 780.916321,470.384979 
	C745.353577,487.287292 713.197510,509.186432 682.672180,533.793518 
	C649.186951,560.786743 621.535522,593.584045 591.853027,624.370056 
	C569.801758,647.241211 549.266907,671.567932 524.681946,691.998840 
	C499.720367,712.742615 475.448822,734.316650 450.679077,755.127258 
	C450.415283,752.734070 450.258423,750.739258 450.292816,748.747681 
	C451.223755,694.779785 452.142395,640.811646 453.153198,586.845276 
	C453.320496,577.913696 453.905396,568.989990 454.302155,559.952881 
	C455.944794,559.591553 457.231750,559.309387 458.518311,559.025269 
	C479.785461,554.329712 501.275391,550.450500 522.261292,544.724121 
	C546.574097,538.090088 569.804749,528.630737 589.955627,512.713989 
	C609.344238,497.399323 627.668945,480.994324 644.597656,462.990204 
	C673.692261,432.047241 695.161438,396.691650 707.439087,355.887360 
	C715.145874,330.274200 719.598450,304.053009 721.814270,277.473816 
	C722.863098,264.892273 723.136414,252.200928 722.936890,239.572342 
	C722.712891,225.399734 715.673035,214.587830 704.187683,206.584885 
	C699.835632,203.552444 694.945374,202.187988 690.044617,204.692230 
	C679.551514,210.054153 671.107605,217.050339 670.826721,230.317917 
	C670.449585,248.131226 670.154968,265.960358 669.138611,283.743439 
	C666.169250,335.695496 648.000916,381.834747 615.712646,422.629974 
	C591.097412,453.730591 562.038574,478.905914 524.883667,494.006439 
	C483.488831,510.830109 440.637207,515.914368 396.536530,509.737183 
	C365.731567,505.422302 336.243622,496.402985 310.393738,478.652313 
	C276.536774,455.403351 248.293610,426.195343 225.691208,391.959412 
	C199.647705,352.511261 188.787018,308.721191 190.609558,261.502045 
	C191.120773,248.257065 190.386627,234.831085 188.714844,221.679932 
	C187.533295,212.385101 180.886139,205.926239 171.746994,203.120575 
	C163.018494,200.440948 155.984116,204.163147 149.453323,209.835068 
	C143.103943,215.349442 140.649429,222.287384 141.047516,230.300613 
	C142.203934,253.579422 142.617416,276.948120 145.046310,300.100677 
	C151.997696,366.362915 178.974655,423.344299 226.141724,470.691559 
	C271.371124,516.093689 326.218475,542.600647 388.745148,554.139404 
	C394.700012,555.238342 400.881592,555.108704 406.442261,555.512085 
	C406.442261,566.988464 406.663940,578.140198 406.401978,589.280518 
	C405.505127,627.418640 404.418213,665.552307 403.443481,703.688599 
	C402.745514,730.996460 402.111023,758.305969 401.161346,785.796265 
	C367.142822,804.907349 331.936218,820.360168 294.702423,831.039673 
	C258.510834,841.420227 221.432343,846.180969 183.966339,848.334717 
	C134.701523,851.166687 85.793365,848.322876 37.401703,838.349243 
	C25.211983,835.836975 13.130968,832.797302 0.999996,830.000000 
M316.636597,180.709320 
	C329.792358,180.619247 342.948547,180.570663 356.103821,180.432281 
	C432.054352,179.633347 508.004730,178.814316 583.955078,177.992569 
	C585.553101,177.975281 587.149963,177.843750 588.668823,177.769363 
	C590.076111,167.191406 587.727661,157.768295 583.358643,148.786102 
	C569.571411,120.440689 549.345520,97.252258 525.547913,76.953430 
	C511.654785,65.102951 496.354095,56.110664 477.992554,53.080730 
	C458.167267,49.809273 438.248688,48.580982 418.278748,50.911907 
	C362.819580,57.385212 323.950775,87.868942 297.714966,135.748428 
	C291.877228,146.402191 288.907196,158.389938 288.992310,170.798523 
	C289.042664,178.139023 290.586487,179.664551 297.700745,179.992050 
	C303.690430,180.267761 309.683380,180.472488 316.636597,180.709320 
M498.500549,366.828339 
	C484.508667,366.709442 470.516113,366.438110 456.525024,366.499420 
	C409.549072,366.705292 362.572510,366.917603 315.599182,367.414154 
	C307.322815,367.501648 299.054504,368.908813 290.795502,369.824097 
	C287.039520,370.240295 286.070618,372.456146 287.504913,375.833984 
	C288.282623,377.665619 288.843109,379.658997 289.952148,381.269073 
	C296.832245,391.257233 303.123779,401.763489 310.926208,410.984589 
	C350.249817,457.458008 399.732849,478.579834 460.457611,466.746674 
	C512.870422,456.533203 546.760315,422.888702 568.460022,375.606903 
	C571.406799,369.186188 570.521484,368.191498 563.451599,368.045227 
	C542.135376,367.604248 520.817688,367.229126 498.500549,366.828339 
M577.479736,288.997070 
	C525.516113,288.569214 473.549744,288.347504 421.589752,287.650452 
	C377.289032,287.056152 333.000916,286.231812 288.790192,290.089050 
	C286.374268,290.299835 283.976044,290.713562 281.179352,291.084595 
	C282.077942,303.284760 282.938019,314.961945 283.829132,327.060913 
	C385.979156,318.878143 487.303894,324.083008 588.687134,325.544586 
	C588.687134,313.170105 588.687134,301.271118 588.687134,288.997070 
	C585.078491,288.997070 581.775208,288.997070 577.479736,288.997070 
M462.500122,246.004135 
	C505.242004,245.631699 547.983887,245.259247 590.603210,244.887863 
	C590.603210,234.065414 590.603210,223.691559 590.603210,213.514084 
	C486.160431,213.514084 382.119110,213.514084 278.066101,213.514084 
	C278.066101,223.984222 278.066101,234.099121 278.066101,245.078796 
	C339.344055,247.446503 400.429657,245.948257 462.500122,246.004135 
z"/>
<path fill="#1E1E1E" opacity="1.000000" stroke="none" 
	d="
M921.000000,468.000000 
	C921.000000,479.690002 921.000000,491.379974 920.602783,503.544647 
	C916.980469,504.834869 913.713867,505.515045 910.538147,506.491119 
	C900.527649,509.567871 890.697937,513.388855 880.525879,515.746216 
	C866.625854,518.967590 853.350952,523.533264 840.886597,530.419434 
	C815.530151,544.428223 793.897522,563.308777 774.162781,584.103699 
	C738.397705,621.789856 703.670105,660.458313 668.225769,698.452026 
	C639.599731,729.137024 611.317993,760.201904 581.512817,789.713989 
	C540.521729,830.302185 496.735779,867.889954 449.439148,901.006042 
	C385.668610,945.656982 314.609314,971.095215 236.842346,975.608337 
	C176.316986,979.120850 116.851822,971.513611 59.046982,952.516663 
	C52.160881,950.253601 45.121780,948.456055 38.153610,946.442749 
	C38.116123,947.886841 38.397358,948.546387 38.894333,948.837280 
	C44.203854,951.944885 49.432446,955.218323 54.899929,958.023987 
	C99.930374,981.131653 147.409286,996.867737 197.245651,1005.789246 
	C236.925629,1012.892700 276.582031,1015.033630 316.428711,1007.580322 
	C399.793945,991.986694 473.301910,955.472534 538.497681,901.892395 
	C571.878540,874.458801 601.851318,843.322266 631.784790,812.237732 
	C649.690613,793.643311 667.549072,774.963196 684.583191,755.578552 
	C713.040466,723.194641 740.215515,689.671753 769.030273,657.617065 
	C810.039246,611.997009 853.793457,569.046448 899.992371,528.646606 
	C906.710144,522.772095 913.983643,517.533081 921.000000,512.000000 
	C921.000000,682.953552 921.000000,853.907043 921.000000,1024.930298 
	C614.333313,1024.930298 307.666656,1024.930298 1.000000,1024.930298 
	C1.000000,974.902954 1.000000,924.916504 1.364261,874.401245 
	C2.638151,874.273987 3.572472,874.627869 4.453839,875.084106 
	C45.885227,896.530334 90.148972,908.430237 136.273834,913.784424 
	C184.249863,919.353577 231.956009,916.949646 279.591064,909.190857 
	C355.873840,896.765930 424.529877,866.170410 487.839386,822.810974 
	C526.805542,796.123718 560.472351,763.258057 592.392639,728.755249 
	C638.974060,678.405273 684.764465,627.321838 730.748474,576.421265 
	C757.618652,546.678162 785.702148,518.478943 820.479614,497.663361 
	C834.203308,489.449219 848.088379,482.713196 864.073181,480.197998 
	C876.681091,478.214172 889.080688,474.907227 901.574219,472.194489 
	C908.047852,470.788910 914.524658,469.397675 921.000000,468.000000 
z"/>
<path fill="#EDEDED" opacity="1.000000" stroke="none" 
	d="
M921.000000,467.545898 
	C914.524658,469.397675 908.047852,470.788910 901.574219,472.194489 
	C889.080688,474.907227 876.681091,478.214172 864.073181,480.197998 
	C848.088379,482.713196 834.203308,489.449219 820.479614,497.663361 
	C785.702148,518.478943 757.618652,546.678162 730.748474,576.421265 
	C684.764465,627.321838 638.974060,678.405273 592.392639,728.755249 
	C560.472351,763.258057 526.805542,796.123718 487.839386,822.810974 
	C424.529877,866.170410 355.873840,896.765930 279.591064,909.190857 
	C231.956009,916.949646 184.249863,919.353577 136.273834,913.784424 
	C90.148972,908.430237 45.885227,896.530334 4.453839,875.084106 
	C3.572472,874.627869 2.638151,874.273987 1.364261,873.936157 
	C1.000000,859.645752 1.000000,845.291565 0.999996,830.468689 
	C13.130968,832.797302 25.211983,835.836975 37.401703,838.349243 
	C85.793365,848.322876 134.701523,851.166687 183.966339,848.334717 
	C221.432343,846.180969 258.510834,841.420227 294.702423,831.039673 
	C331.936218,820.360168 367.142822,804.907349 401.510895,785.688049 
	C418.389923,775.441223 434.632538,765.484192 450.875122,755.527100 
	C475.448822,734.316650 499.720367,712.742615 524.681946,691.998840 
	C549.266907,671.567932 569.801758,647.241211 591.853027,624.370056 
	C621.535522,593.584045 649.186951,560.786743 682.672180,533.793518 
	C713.197510,509.186432 745.353577,487.287292 780.916321,470.384979 
	C813.489380,454.903625 847.655457,450.725006 883.037415,453.536469 
	C895.460022,454.523560 907.802551,456.517944 920.590820,458.026184 
	C921.000000,461.030609 921.000000,464.061188 921.000000,467.545898 
z"/>
<path fill="#CEB23B" opacity="1.000000" stroke="none" 
	d="
M921.000000,511.555847 
	C913.983643,517.533081 906.710144,522.772095 899.992371,528.646606 
	C853.793457,569.046448 810.039246,611.997009 769.030273,657.617065 
	C740.215515,689.671753 713.040466,723.194641 684.583191,755.578552 
	C667.549072,774.963196 649.690613,793.643311 631.784790,812.237732 
	C601.851318,843.322266 571.878540,874.458801 538.497681,901.892395 
	C473.301910,955.472534 399.793945,991.986694 316.428711,1007.580322 
	C276.582031,1015.033630 236.925629,1012.892700 197.245651,1005.789246 
	C147.409286,996.867737 99.930374,981.131653 54.899929,958.023987 
	C49.432446,955.218323 44.203854,951.944885 38.894333,948.837280 
	C38.397358,948.546387 38.116123,947.886841 38.153610,946.442749 
	C45.121780,948.456055 52.160881,950.253601 59.046982,952.516663 
	C116.851822,971.513611 176.316986,979.120850 236.842346,975.608337 
	C314.609314,971.095215 385.668610,945.656982 449.439148,901.006042 
	C496.735779,867.889954 540.521729,830.302185 581.512817,789.713989 
	C611.317993,760.201904 639.599731,729.137024 668.225769,698.452026 
	C703.670105,660.458313 738.397705,621.789856 774.162781,584.103699 
	C793.897522,563.308777 815.530151,544.428223 840.886597,530.419434 
	C853.350952,523.533264 866.625854,518.967590 880.525879,515.746216 
	C890.697937,513.388855 900.527649,509.567871 910.538147,506.491119 
	C913.713867,505.515045 916.980469,504.834869 920.602783,504.009644 
	C921.000000,506.370575 921.000000,508.741119 921.000000,511.555847 
z"/>
<path fill="#CEB23B" opacity="1.000000" stroke="none" 
	d="
M450.679077,755.127258 
	C434.632538,765.484192 418.389923,775.441223 401.797760,785.506470 
	C402.111023,758.305969 402.745514,730.996460 403.443481,703.688599 
	C404.418213,665.552307 405.505127,627.418640 406.401978,589.280518 
	C406.663940,578.140198 406.442261,566.988464 406.442261,555.512085 
	C400.881592,555.108704 394.700012,555.238342 388.745148,554.139404 
	C326.218475,542.600647 271.371124,516.093689 226.141724,470.691559 
	C178.974655,423.344299 151.997696,366.362915 145.046310,300.100677 
	C142.617416,276.948120 142.203934,253.579422 141.047516,230.300613 
	C140.649429,222.287384 143.103943,215.349442 149.453323,209.835068 
	C155.984116,204.163147 163.018494,200.440948 171.746994,203.120575 
	C180.886139,205.926239 187.533295,212.385101 188.714844,221.679932 
	C190.386627,234.831085 191.120773,248.257065 190.609558,261.502045 
	C188.787018,308.721191 199.647705,352.511261 225.691208,391.959412 
	C248.293610,426.195343 276.536774,455.403351 310.393738,478.652313 
	C336.243622,496.402985 365.731567,505.422302 396.536530,509.737183 
	C440.637207,515.914368 483.488831,510.830109 524.883667,494.006439 
	C562.038574,478.905914 591.097412,453.730591 615.712646,422.629974 
	C648.000916,381.834747 666.169250,335.695496 669.138611,283.743439 
	C670.154968,265.960358 670.449585,248.131226 670.826721,230.317917 
	C671.107605,217.050339 679.551514,210.054153 690.044617,204.692230 
	C694.945374,202.187988 699.835632,203.552444 704.187683,206.584885 
	C715.673035,214.587830 722.712891,225.399734 722.936890,239.572342 
	C723.136414,252.200928 722.863098,264.892273 721.814270,277.473816 
	C719.598450,304.053009 715.145874,330.274200 707.439087,355.887360 
	C695.161438,396.691650 673.692261,432.047241 644.597656,462.990204 
	C627.668945,480.994324 609.344238,497.399323 589.955627,512.713989 
	C569.804749,528.630737 546.574097,538.090088 522.261292,544.724121 
	C501.275391,550.450500 479.785461,554.329712 458.518311,559.025269 
	C457.231750,559.309387 455.944794,559.591553 454.302155,559.952881 
	C453.905396,568.989990 453.320496,577.913696 453.153198,586.845276 
	C452.142395,640.811646 451.223755,694.779785 450.292816,748.747681 
	C450.258423,750.739258 450.415283,752.734070 450.679077,755.127258 
z"/>
<path fill="#CFB33B" opacity="1.000000" stroke="none" 
	d="
M316.155731,180.708984 
	C309.683380,180.472488 303.690430,180.267761 297.700745,179.992050 
	C290.586487,179.664551 289.042664,178.139023 288.992310,170.798523 
	C288.907196,158.389938 291.877228,146.402191 297.714966,135.748428 
	C323.950775,87.868942 362.819580,57.385212 418.278748,50.911907 
	C438.248688,48.580982 458.167267,49.809273 477.992554,53.080730 
	C496.354095,56.110664 511.654785,65.102951 525.547913,76.953430 
	C549.345520,97.252258 569.571411,120.440689 583.358643,148.786102 
	C587.727661,157.768295 590.076111,167.191406 588.668823,177.769363 
	C587.149963,177.843750 585.553101,177.975281 583.955078,177.992569 
	C508.004730,178.814316 432.054352,179.633347 356.103821,180.432281 
	C342.948547,180.570663 329.792358,180.619247 316.155731,180.708984 
z"/>
<path fill="#DFDFDF" opacity="1.000000" stroke="none" 
	d="
M499.000580,366.828308 
	C520.817688,367.229126 542.135376,367.604248 563.451599,368.045227 
	C570.521484,368.191498 571.406799,369.186188 568.460022,375.606903 
	C546.760315,422.888702 512.870422,456.533203 460.457611,466.746674 
	C399.732849,478.579834 350.249817,457.458008 310.926208,410.984589 
	C303.123779,401.763489 296.832245,391.257233 289.952148,381.269073 
	C288.843109,379.658997 288.282623,377.665619 287.504913,375.833984 
	C286.070618,372.456146 287.039520,370.240295 290.795502,369.824097 
	C299.054504,368.908813 307.322815,367.501648 315.599182,367.414154 
	C362.572510,366.917603 409.549072,366.705292 456.525024,366.499420 
	C470.516113,366.438110 484.508667,366.709442 499.000580,366.828308 
z"/>
<path fill="#CEB23B" opacity="1.000000" stroke="none" 
	d="
M577.975830,288.997070 
	C581.775208,288.997070 585.078491,288.997070 588.687134,288.997070 
	C588.687134,301.271118 588.687134,313.170105 588.687134,325.544586 
	C487.303894,324.083008 385.979156,318.878143 283.829132,327.060913 
	C282.938019,314.961945 282.077942,303.284760 281.179352,291.084595 
	C283.976044,290.713562 286.374268,290.299835 288.790192,290.089050 
	C333.000916,286.231812 377.289032,287.056152 421.589752,287.650452 
	C473.549744,288.347504 525.516113,288.569214 577.975830,288.997070 
z"/>
<path fill="#ECECEC" opacity="1.000000" stroke="none" 
	d="
M462.000092,246.004272 
	C400.429657,245.948257 339.344055,247.446503 278.066101,245.078796 
	C278.066101,234.099121 278.066101,223.984222 278.066101,213.514084 
	C382.119110,213.514084 486.160431,213.514084 590.603210,213.514084 
	C590.603210,223.691559 590.603210,234.065414 590.603210,244.887863 
	C547.983887,245.259247 505.242004,245.631699 462.000092,246.004272 
z"/>
</svg>